<svg>
    <symbol
        xmlns="http://www.w3.org/2000/svg"
        viewBox="0 0 24 24"
        fill="none"
        stroke="currentColor"
        stroke-width="2"
        stroke-linecap="round"
        stroke-linejoin="round"
        id="dollar"
    >
        <circle cx="12" cy="12" r="10" />
        <path d="M16 8h-6a2 2 0 1 0 0 4h4a2 2 0 1 1 0 4H8" />
        <path d="M12 18V6" />
    </symbol>
    <symbol
        xmlns="http://www.w3.org/2000/svg"
        viewBox="0 0 24 24"
        fill="none"
        stroke="currentColor"
        stroke-width="2"
        stroke-linecap="round"
        stroke-linejoin="round"
        id="hand-coin"
    >
        <path d="M11 15h2a2 2 0 1 0 0-4h-3c-.6 0-1.1.2-1.4.6L3 17" />
        <path d="m7 21 1.6-1.4c.3-.4.8-.6 1.4-.6h4c1.1 0 2.1-.4 2.8-1.2l4.6-4.4a2 2 0 0 0-2.75-2.91l-4.2 3.9" />
        <path d="m2 16 6 6" />
        <circle cx="16" cy="9" r="2.9" />
        <circle cx="6" cy="5" r="3" />
    </symbol>
    <symbol
        xmlns="http://www.w3.org/2000/svg"
        viewBox="0 0 24 24"
        fill="none"
        stroke="currentColor"
        stroke-width="2"
        stroke-linecap="round"
        stroke-linejoin="round"
        id="piggy"
    >
        <path d="M19 5c-1.5 0-2.8 1.4-3 2-3.5-1.5-11-.3-11 5 0 1.8 0 3 2 4.5V20h4v-2h3v2h4v-4c1-.5 1.7-1 2-2h2v-4h-2c0-1-.5-1.5-1-2V5z" />
        <path d="M2 9v1c0 1.1.9 2 2 2h1" />
        <path d="M16 11h.01" />
    </symbol>
    <symbol
        xmlns="http://www.w3.org/2000/svg"
        viewBox="0 0 24 24"
        fill="none"
        stroke="currentColor"
        stroke-width="2"
        stroke-linecap="round"
        stroke-linejoin="round"
        id="fire"
    >
        <path d="M8.5 14.5A2.5 2.5 0 0 0 11 12c0-1.38-.5-2-1-3-1.072-2.143-.224-4.054 2-6 .5 2.5 2 4.9 4 6.5 2 1.6 3 3.5 3 5.5a7 7 0 1 1-14 0c0-1.153.433-2.294 1-3a2.5 2.5 0 0 0 2.5 2.5z" />
    </symbol>
    <symbol
        xmlns="http://www.w3.org/2000/svg"
        viewBox="0 0 24 24"
        fill="none"
        stroke="currentColor"
        stroke-width="2"
        stroke-linecap="round"
        stroke-linejoin="round"
        id="basket"
    >
        <path d="m15 11-1 9" />
        <path d="m19 11-4-7" />
        <path d="M2 11h20" />
        <path d="m3.5 11 1.6 7.4a2 2 0 0 0 2 1.6h9.8a2 2 0 0 0 2-1.6l1.7-7.4" />
        <path d="M4.5 15.5h15" />
        <path d="m5 11 4-7" />
        <path d="m9 11 1 9" />
        
    </symbol>
    <symbol
        xmlns="http://www.w3.org/2000/svg"
        viewBox="0 0 24 24"
        fill="none"
        stroke="currentColor"
        stroke-width="2"
        stroke-linecap="round"
        stroke-linejoin="round"
        id="settings"
    >
        <path d="M12.22 2h-.44a2 2 0 0 0-2 2v.18a2 2 0 0 1-1 1.73l-.43.25a2 2 0 0 1-2 0l-.15-.08a2 2 0 0 0-2.73.73l-.22.38a2 2 0 0 0 .73 2.73l.15.1a2 2 0 0 1 1 1.72v.51a2 2 0 0 1-1 1.74l-.15.09a2 2 0 0 0-.73 2.73l.22.38a2 2 0 0 0 2.73.73l.15-.08a2 2 0 0 1 2 0l.43.25a2 2 0 0 1 1 1.73V20a2 2 0 0 0 2 2h.44a2 2 0 0 0 2-2v-.18a2 2 0 0 1 1-1.73l.43-.25a2 2 0 0 1 2 0l.15.08a2 2 0 0 0 2.73-.73l.22-.39a2 2 0 0 0-.73-2.73l-.15-.08a2 2 0 0 1-1-1.74v-.5a2 2 0 0 1 1-1.74l.15-.09a2 2 0 0 0 .73-2.73l-.22-.38a2 2 0 0 0-2.73-.73l-.15.08a2 2 0 0 1-2 0l-.43-.25a2 2 0 0 1-1-1.73V4a2 2 0 0 0-2-2z" />
        <circle cx="12" cy="12" r="3" />
    </symbol>
    <symbol
        xmlns="http://www.w3.org/2000/svg"
        viewBox="0 0 24 24"
        fill="none"
        stroke="currentColor"
        stroke-width="2"
        stroke-linecap="round"
        stroke-linejoin="round"
        id="bolt"
    >
        <path d="M21 16V8a2 2 0 0 0-1-1.73l-7-4a2 2 0 0 0-2 0l-7 4A2 2 0 0 0 3 8v8a2 2 0 0 0 1 1.73l7 4a2 2 0 0 0 2 0l7-4A2 2 0 0 0 21 16z" />
        <circle cx="12" cy="12" r="4" />
    </symbol>
    <symbol
        xmlns="http://www.w3.org/2000/svg"
        width="24"
        height="24"
        viewBox="0 0 24 24"
        fill="none"
        stroke="currentColor"
        stroke-width="2"
        stroke-linecap="round"
        stroke-linejoin="round"
        id="sword"
    >
        <polyline points="14.5 17.5 3 6 3 3 6 3 17.5 14.5" />
        <line x1="13" x2="19" y1="19" y2="13" />
        <line x1="16" x2="20" y1="16" y2="20" />
        <line x1="19" x2="21" y1="21" y2="19" />
        <polyline points="14.5 6.5 18 3 21 3 21 6 17.5 9.5" />
        <line x1="5" x2="9" y1="14" y2="18" />
        <line x1="7" x2="4" y1="17" y2="20" />
        <line x1="3" x2="5" y1="19" y2="21" />
    </symbol>
    <symbol
        xmlns="http://www.w3.org/2000/svg"
        viewBox="0 0 24 24"
        fill="none"
        stroke="currentColor"
        stroke-width="2"
        stroke-linecap="round"
        stroke-linejoin="round"
        id="basket"
    >
        <path d="m15 11-1 9" />
        <path d="m19 11-4-7" />
        <path d="M2 11h20" />
        <path d="m3.5 11 1.6 7.4a2 2 0 0 0 2 1.6h9.8a2 2 0 0 0 2-1.6l1.7-7.4" />
        <path d="M4.5 15.5h15" />
        <path d="m5 11 4-7" />
        <path d="m9 11 1 9" />
        
    </symbol>
    <symbol xmlns="http://www.w3.org/2000/svg" id="chevron-down" viewBox="0 0 24 24" fill="none" stroke="currentColor" stroke-width="2" stroke-linecap="round" stroke-linejoin="round" class="lucide lucide-chevron-down"><path d="m6 9 6 6 6-6"/></symbol>
    <svg xmlns="http://www.w3.org/2000/svg" id="close" viewBox="0 0 24 24" fill="none" stroke="currentColor" stroke-width="2" stroke-linecap="round" stroke-linejoin="round" class="lucide lucide-x"><path d="M18 6 6 18"/><path d="m6 6 12 12"/></svg>
</svg>